Coordinates
version=1
nRows=26
nColumns=24
inDegrees=yes

Units are S.I. units (second, meters, Newtons, ...)
Angles are in degrees.

endheader
time	pelvis_tilt	pelvis_list	pelvis_rotation	pelvis_tx	pelvis_ty	pelvis_tz	hip_flexion_r	hip_adduction_r	hip_rotation_r	knee_angle_r	ankle_angle_r	subtalar_angle_r	mtp_angle_r	hip_flexion_l	hip_adduction_l	hip_rotation_l	knee_angle_l	ankle_angle_l	subtalar_angle_l	mtp_angle_l	lumbar_extension	lumbar_bending	lumbar_rotation
      1.25916667	     -4.41962942	      2.30548866	     -4.89716076	      0.30487067	      1.07094031	      0.25183339	     23.70038676	     -5.53048105	     -6.23787183	    -67.97810634	      3.39237588	     -1.39208438	      7.41364433	     11.45595649	      4.34249098	      0.50845413	    -14.70744311	     10.01947306	      3.05472212	      0.72122367	    -12.94075703	     -3.81236516	     -1.31068546
      1.26333333	     -4.41240376	      2.18562420	     -4.77737342	      0.30975002	      1.07176856	      0.25157892	     24.08233051	     -5.38208011	     -6.43266923	    -67.33264039	      3.66414871	     -1.12565370	      7.43735874	     10.92980900	      4.25458588	      0.60502926	    -14.24025134	     10.00149342	      3.14347380	      0.72594034	    -12.98530346	     -3.63950057	     -1.41254616
      1.26750000	     -4.36958660	      2.10010885	     -4.65618198	      0.31462663	      1.07260776	      0.25130934	     24.42242245	     -5.28038802	     -6.62030282	    -66.65826830	      3.95432910	     -0.81121766	      7.47442016	     10.35038377	      4.21287140	      0.75384826	    -13.73227625	      9.99505882	      3.15344475	      0.73415710	    -13.06866031	     -3.48276167	     -1.64404225
      1.27166667	     -4.37590410	      2.00487813	     -4.53465772	      0.31949777	      1.07329539	      0.25106946	     24.80603109	     -5.15497567	     -6.80105501	    -65.94720082	      4.22783410	     -0.57572558	      7.49903882	      9.84171936	      4.14616776	      0.85018351	    -13.25938460	      9.93542265	      3.22932283	      0.73777319	    -13.09404385	     -3.32103702	     -1.76261525
      1.27583333	     -4.34710630	      1.93735499	     -4.41282147	      0.32434704	      1.07397985	      0.25082720	     25.14906030	     -5.06583030	     -6.97186032	    -65.21112068	      4.50627798	     -0.27868596	      7.54550936	      9.28100475	      4.12016635	      1.03239772	    -12.75136466	      9.92280674	      3.18397419	      0.74817552	    -13.16578306	     -3.19815089	     -2.03853176
      1.28000000	     -4.35007603	      1.84745202	     -4.28909451	      0.32920258	      1.07458381	      0.25059534	     25.50662991	     -4.94330304	     -7.14141179	    -64.42092573	      4.76148409	     -0.05546357	      7.59633529	      8.76464197	      4.06022253	      1.18080677	    -12.26508385	      9.87017959	      3.17842092	      0.76051019	    -13.19731519	     -3.04418055	     -2.22820331
      1.28416667	     -4.35468681	      1.77188633	     -4.17175612	      0.33405568	      1.07510432	      0.25038768	     25.86168710	     -4.83410737	     -7.29878541	    -63.60520594	      5.00515148	      0.18338131	      7.63270878	      8.26101982	      4.01058694	      1.29453904	    -11.80256648	      9.87656851	      3.21131526	      0.76988736	    -13.21488603	     -2.91060173	     -2.36996514
      1.28833333	     -4.35741378	      1.70527724	     -4.05682616	      0.33890232	      1.07559125	      0.25019747	     26.20520526	     -4.72895999	     -7.44135293	    -62.75276310	      5.24096468	      0.39150888	      7.67037857	      7.75228224	      3.96915672	      1.42838352	    -11.32928437	      9.85246355	      3.21596663	      0.77926725	    -13.24153995	     -2.78691632	     -2.54907644
      1.29250000	     -4.40276360	      1.64297676	     -3.95771091	      0.34375248	      1.07591968	      0.25004891	     26.59231091	     -4.61349294	     -7.55855811	    -61.87797537	      5.45580524	      0.51762319	      7.68636493	      7.30333714	      3.92007649	      1.49058589	    -10.88436018	      9.83480271	      3.30606470	      0.78296636	    -13.21105587	     -2.66716591	     -2.62099633
      1.29666667	     -4.40790023	      1.56756672	     -3.83642977	      0.34856471	      1.07629372	      0.24988166	     26.90833725	     -4.49317852	     -7.68986345	    -60.94235200	      5.68319292	      0.72844027	      7.71375766	      6.81954634	      3.86421603	      1.62530499	    -10.45772233	      9.82387043	      3.29714708	      0.78984579	    -13.24559152	     -2.55067807	     -2.81011288
      1.30083333	     -4.43753802	      1.52388364	     -3.73697894	      0.35338800	      1.07653229	      0.24975137	     27.25799255	     -4.39520255	     -7.78445552	    -60.00140156	      5.89060775	      0.86022852	      7.73723050	      6.35757482	      3.83678165	      1.73713953	    -10.01733394	      9.81476906	      3.30247338	      0.79651942	    -13.23678121	     -2.45677010	     -2.96568688
      1.30500000	     -4.46825709	      1.50043810	     -3.63777499	      0.35819763	      1.07669882	      0.24962257	     27.60447978	     -4.32111476	     -7.87054217	    -59.03877111	      6.07257822	      0.98415236	      7.77693513	      5.88922826	      3.83454289	      1.91567500	     -9.55738683	      9.82001993	      3.21079969	      0.81064462	    -13.22657101	     -2.37417726	     -3.19933265
      1.30916667	     -4.52305556	      1.47555121	     -3.54909399	      0.36300169	      1.07677710	      0.24954255	     27.96437967	     -4.22783074	     -7.92654745	    -58.03743098	      6.25693866	      1.06548246	      7.81530972	      5.46228808	      3.82131827	      2.03997634	     -9.13022325	      9.80650396	      3.18617924	      0.82574756	    -13.19575570	     -2.30696965	     -3.33800185
      1.31333333	     -4.56123707	      1.44467463	     -3.46663215	      0.36781212	      1.07683494	      0.24948256	     28.28960161	     -4.12601340	     -7.97519538	    -56.99419603	      6.41238131	      1.12547993	      7.84301052	      5.02780494	      3.79804373	      2.12400995	     -8.72916888	      9.83328561	      3.19997558	      0.83831291	    -13.16933057	     -2.23732427	     -3.44617265
      1.31750000	     -4.60074431	      1.42892713	     -3.38975294	      0.37259942	      1.07682954	      0.24943414	     28.60992576	     -4.03473513	     -8.00020944	    -55.92620833	      6.56697645	      1.16593666	      7.87303801	      4.59658170	      3.79121803	      2.22935122	     -8.32751065	      9.84864005	      3.18397462	      0.85216868	    -13.15496813	     -2.18339910	     -3.58011734
      1.32166667	     -4.65840923	      1.41914584	     -3.32256489	      0.37738530	      1.07673164	      0.24942651	     28.93925607	     -3.93874530	     -8.00131780	    -54.82591629	      6.70962575	      1.18136000	      7.89813906	      4.19219954	      3.78522709	      2.31469786	     -7.94169357	      9.87550853	      3.18144655	      0.86487731	    -13.11256184	     -2.14144567	     -3.68586176
      1.32583333	     -4.72531341	      1.41997691	     -3.26164747	      0.38216499	      1.07655531	      0.24942551	     29.26957280	     -3.84774713	     -7.97934149	    -53.69894315	      6.83953219	      1.17246177	      7.92427510	      3.80106981	      3.79049419	      2.41264382	     -7.56360543	      9.90647567	      3.16250104	      0.87880313	    -13.06371085	     -2.10843661	     -3.79653467
      1.33000000	     -4.80256498	      1.43360300	     -3.21469118	      0.38693654	      1.07630175	      0.24947221	     29.60207717	     -3.75712707	     -7.92352871	    -52.54295086	      6.98957237	      1.16525018	      7.93560489	      3.43556318	      3.80351678	      2.45160511	     -7.21384993	      9.94405268	      3.20305146	      0.88573738	    -12.99988081	     -2.10176711	     -3.85787650
      1.33416667	     -4.88218711	      1.47955508	     -3.18137765	      0.39170934	      1.07595554	      0.24954442	     29.93824380	     -3.69567660	     -7.84046930	    -51.37974604	      7.12149270	      1.15280983	      7.94074963	      3.07001549	      3.85092937	      2.49556617	     -6.85928030	     10.03436415	      3.26592199	      0.89103916	    -12.91800938	     -2.13867050	     -3.91210358
      1.33833333	     -4.94253989	      1.47921029	     -3.13062057	      0.39645334	      1.07566593	      0.24960187	     30.21226678	     -3.58427908	     -7.76582254	    -50.13259827	      7.18413935	      1.02930046	      7.97011114	      2.67643195	      3.85181003	      2.65299035	     -6.49127891	     10.03768934	      3.12168138	      0.90709262	    -12.90784428	     -2.09694901	     -4.06619690
      1.34250000	     -5.03097203	      1.53217917	     -3.10897932	      0.40122680	      1.07520703	      0.24969976	     30.52928496	     -3.52236496	     -7.65564727	    -48.90446786	      7.32111902	      1.02295178	      7.97498889	      2.33021094	      3.90409044	      2.67376436	     -6.15835013	     10.13224441	      3.18166988	      0.91218634	    -12.81349243	     -2.15213809	     -4.10273930
      1.34666667	     -5.10087792	      1.54654396	     -3.07607034	      0.40597192	      1.07478910	      0.24979918	     30.78614238	     -3.41236018	     -7.53522100	    -47.59099149	      7.35661537	      0.86736170	      7.99142962	      1.96598067	      3.91542974	      2.76801873	     -5.83370264	     10.17359783	      3.11366251	      0.92294869	    -12.77420724	     -2.13662196	     -4.17492638
      1.35083333	     -5.20389976	      1.59802826	     -3.06480075	      0.41073239	      1.07422117	      0.24993821	     31.08346210	     -3.33022194	     -7.37601962	    -46.28334871	      7.47012205	      0.80168474	      8.00122261	      1.64275379	      3.96324928	      2.80832663	     -5.51924864	     10.23629674	      3.11313998	      0.92944278	    -12.68590315	     -2.16689568	     -4.21932034
      1.35500000	     -5.29453084	      1.65613826	     -3.05636044	      0.41547450	      1.07362397	      0.25008996	     31.35284476	     -3.25243201	     -7.20203872	    -44.94092214	      7.53407908	      0.67816377	      8.01138156	      1.30681095	      4.01869607	      2.86929688	     -5.20559512	     10.31123016	      3.08301057	      0.93641061	    -12.61387745	     -2.21728931	     -4.26866618
      1.35916667	     -5.38206060	      1.71755865	     -3.05169667	      0.42022568	      1.07300127	      0.25025607	     31.60120316	     -3.17472377	     -7.01496580	    -43.56393732	      7.58421450	      0.54476680	      8.02308657	      0.96541247	      4.07717423	      2.93967254	     -4.88917747	     10.38700929	      3.03915788	      0.94301071	    -12.55012583	     -2.27502279	     -4.31116730
      1.36333333	     -5.47382637	      1.78940437	     -3.05275551	      0.42496555	      1.07231030	      0.25043717	     31.84157318	     -3.10249135	     -6.80460362	    -42.16023869	      7.63950907	      0.41547499	      8.03438958	      0.63545696	      4.14592379	      3.00318167	     -4.58704459	     10.46687987	      3.00017470	      0.94855391	    -12.47638161	     -2.33599238	     -4.34216986
